ISO-10303-21;
HEADER;
/* Generated by software containing ST-Developer
 * from STEP Tools, Inc. (www.steptools.com) 
 */
/* OPTION: using custom schema-name function */

FILE_DESCRIPTION(
/* description */ (''),
/* implementation_level */ '2;1');

FILE_NAME(
/* name */ 'Gen1_Open_R_with_mount.stp',
/* time_stamp */ '2026-06-17T18:46:11-07:00',
/* author */ (''),
/* organization */ (''),
/* preprocessor_version */ 'ST-DEVELOPER v20',
/* originating_system */ 'SIEMENS PLM Software NX2412.8701',
/* authorisation */ '');

FILE_SCHEMA (('AUTOMOTIVE_DESIGN { 1 0 10303 214 3 1 1 1 }'));
ENDSEC;

DATA;
#10=PROPERTY_DEFINITION_REPRESENTATION(#14,#12);
#11=PROPERTY_DEFINITION_REPRESENTATION(#15,#13);
#12=REPRESENTATION('',(#16),#1183);
#13=REPRESENTATION('',(#17),#1183);
#14=PROPERTY_DEFINITION('pmi validation property','',#21);
#15=PROPERTY_DEFINITION('pmi validation property','',#21);
#16=VALUE_REPRESENTATION_ITEM('number of annotations',COUNT_MEASURE(0.));
#17=VALUE_REPRESENTATION_ITEM('number of views',COUNT_MEASURE(0.));
#18=SHAPE_REPRESENTATION_RELATIONSHIP('None',
'relationship between Gen1_Open_R_with_mount_objects-None and Gen1_Ope
n_R_with_mount_objects-None',#30,#19);
#19=ADVANCED_BREP_SHAPE_REPRESENTATION(
'Gen1_Open_R_with_mount_objects-None',(#40),#1183);
#20=SHAPE_DEFINITION_REPRESENTATION(#21,#30);
#21=PRODUCT_DEFINITION_SHAPE('','',#22);
#22=PRODUCT_DEFINITION(' ','',#24,#23);
#23=PRODUCT_DEFINITION_CONTEXT('part definition',#29,'design');
#24=PRODUCT_DEFINITION_FORMATION_WITH_SPECIFIED_SOURCE(' ',' ',#26,
 .NOT_KNOWN.);
#25=PRODUCT_RELATED_PRODUCT_CATEGORY('part','',(#26));
#26=PRODUCT('Gen1_Open_R_with_mount_objects',
'Gen1_Open_R_with_mount_objects',' ',(#27));
#27=PRODUCT_CONTEXT(' ',#29,'mechanical');
#28=APPLICATION_PROTOCOL_DEFINITION('international standard',
'automotive_design',2010,#29);
#29=APPLICATION_CONTEXT(
'core data for automotive mechanical design processes');
#30=SHAPE_REPRESENTATION('Gen1_Open_R_with_mount_objects-None',(#722),#1183);
#31=PRESENTATION_LAYER_ASSIGNMENT('1','Layer 1',(#40));
#32=STYLED_ITEM('',(#33),#40);
#33=PRESENTATION_STYLE_ASSIGNMENT((#34));
#34=SURFACE_STYLE_USAGE(.BOTH.,#35);
#35=SURFACE_SIDE_STYLE('',(#36));
#36=SURFACE_STYLE_FILL_AREA(#37);
#37=FILL_AREA_STYLE('',(#38));
#38=FILL_AREA_STYLE_COLOUR('',#39);
#39=COLOUR_RGB('medium steel',0.611764705882353,0.658823529411765,0.670588235294118);
#40=MANIFOLD_SOLID_BREP('',#41);
#41=CLOSED_SHELL('',(#84,#85,#86,#87,#88,#89,#90,#91,#92,#93,#94,#95,#96,
#97,#98,#99,#100,#101,#102,#103,#104,#105,#106,#107,#108,#109,#110,#111,
#112,#113,#114,#115,#116,#117,#118,#119,#120,#121,#122,#123));
#42=ELLIPSE('',#744,4.25671108990365,4.);
#43=ELLIPSE('',#745,4.25671108990365,4.);
#44=ELLIPSE('',#746,4.25671108990365,4.);
#45=ELLIPSE('',#747,4.25671108990365,4.);
#46=ELLIPSE('',#749,11.6952176006523,4.);
#47=ELLIPSE('',#750,11.6952176006523,4.);
#48=ELLIPSE('',#753,3.72462220366569,3.5);
#49=ELLIPSE('',#754,3.72462220366569,3.5);
#50=ELLIPSE('',#755,3.72462220366569,3.5);
#51=ELLIPSE('',#756,3.72462220366569,3.5);
#52=ELLIPSE('',#761,4.25671108990365,4.);
#53=ELLIPSE('',#762,4.25671108990365,4.);
#54=ELLIPSE('',#763,4.25671108990365,4.);
#55=ELLIPSE('',#764,4.25671108990365,4.);
#56=CYLINDRICAL_SURFACE('',#737,3.25);
#57=CYLINDRICAL_SURFACE('',#740,3.25);
#58=CYLINDRICAL_SURFACE('',#769,7.5);
#59=CYLINDRICAL_SURFACE('',#772,7.5);
#60=CYLINDRICAL_SURFACE('',#773,4.);
#61=CYLINDRICAL_SURFACE('',#774,4.);
#62=CYLINDRICAL_SURFACE('',#775,4.);
#63=CYLINDRICAL_SURFACE('',#776,4.);
#64=CYLINDRICAL_SURFACE('',#778,3.5);
#65=CYLINDRICAL_SURFACE('',#780,1.75);
#66=CYLINDRICAL_SURFACE('',#783,3.5);
#67=CYLINDRICAL_SURFACE('',#785,1.75);
#68=CYLINDRICAL_SURFACE('',#788,3.5);
#69=CYLINDRICAL_SURFACE('',#790,1.75);
#70=CYLINDRICAL_SURFACE('',#793,3.5);
#71=CYLINDRICAL_SURFACE('',#795,1.75);
#72=FACE_OUTER_BOUND('',#317,.T.);
#73=FACE_OUTER_BOUND('',#318,.T.);
#74=FACE_OUTER_BOUND('',#319,.T.);
#75=FACE_OUTER_BOUND('',#320,.T.);
#76=FACE_OUTER_BOUND('',#321,.T.);
#77=FACE_OUTER_BOUND('',#322,.T.);
#78=FACE_OUTER_BOUND('',#323,.T.);
#79=FACE_OUTER_BOUND('',#328,.T.);
#80=FACE_OUTER_BOUND('',#329,.T.);
#81=FACE_OUTER_BOUND('',#330,.T.);
#82=FACE_OUTER_BOUND('',#336,.T.);
#83=FACE_OUTER_BOUND('',#351,.T.);
#84=ADVANCED_FACE('',(#244,#245,#246,#247,#248),#124,.T.);
#85=ADVANCED_FACE('',(#72),#125,.T.);
#86=ADVANCED_FACE('',(#73),#126,.T.);
#87=ADVANCED_FACE('',(#74),#127,.T.);
#88=ADVANCED_FACE('',(#75),#128,.T.);
#89=ADVANCED_FACE('',(#76),#129,.F.);
#90=ADVANCED_FACE('',(#77),#130,.T.);
#91=ADVANCED_FACE('',(#78),#131,.F.);
#92=ADVANCED_FACE('',(#249,#250),#56,.F.);
#93=ADVANCED_FACE('',(#251,#252),#57,.F.);
#94=ADVANCED_FACE('',(#79),#132,.T.);
#95=ADVANCED_FACE('',(#80),#133,.T.);
#96=ADVANCED_FACE('',(#81),#134,.F.);
#97=ADVANCED_FACE('',(#253,#254,#255,#256,#257),#135,.T.);
#98=ADVANCED_FACE('',(#82),#136,.T.);
#99=ADVANCED_FACE('',(#258,#259,#260),#137,.T.);
#100=ADVANCED_FACE('',(#261,#262,#263,#264,#265),#138,.T.);
#101=ADVANCED_FACE('',(#266,#267,#268),#139,.T.);
#102=ADVANCED_FACE('',(#269,#270,#271),#140,.T.);
#103=ADVANCED_FACE('',(#83),#141,.F.);
#104=ADVANCED_FACE('',(#272,#273),#142,.F.);
#105=ADVANCED_FACE('',(#274,#275),#58,.F.);
#106=ADVANCED_FACE('',(#276,#277),#143,.F.);
#107=ADVANCED_FACE('',(#278,#279),#59,.F.);
#108=ADVANCED_FACE('',(#280,#281),#60,.F.);
#109=ADVANCED_FACE('',(#282,#283),#61,.F.);
#110=ADVANCED_FACE('',(#284,#285),#62,.F.);
#111=ADVANCED_FACE('',(#286,#287),#63,.F.);
#112=ADVANCED_FACE('',(#288,#289),#64,.F.);
#113=ADVANCED_FACE('',(#290,#291),#65,.F.);
#114=ADVANCED_FACE('',(#292,#293),#144,.F.);
#115=ADVANCED_FACE('',(#294,#295),#66,.F.);
#116=ADVANCED_FACE('',(#296,#297),#67,.F.);
#117=ADVANCED_FACE('',(#298,#299),#145,.F.);
#118=ADVANCED_FACE('',(#300,#301),#68,.F.);
#119=ADVANCED_FACE('',(#302,#303),#69,.F.);
#120=ADVANCED_FACE('',(#304,#305),#146,.F.);
#121=ADVANCED_FACE('',(#306,#307),#70,.F.);
#122=ADVANCED_FACE('',(#308,#309),#71,.F.);
#123=ADVANCED_FACE('',(#310,#311),#147,.F.);
#124=PLANE('',#727);
#125=PLANE('',#728);
#126=PLANE('',#729);
#127=PLANE('',#730);
#128=PLANE('',#731);
#129=PLANE('',#732);
#130=PLANE('',#733);
#131=PLANE('',#734);
#132=PLANE('',#741);
#133=PLANE('',#742);
#134=PLANE('',#743);
#135=PLANE('',#748);
#136=PLANE('',#751);
#137=PLANE('',#752);
#138=PLANE('',#757);
#139=PLANE('',#760);
#140=PLANE('',#765);
#141=PLANE('',#766);
#142=PLANE('',#768);
#143=PLANE('',#771);
#144=PLANE('',#781);
#145=PLANE('',#786);
#146=PLANE('',#791);
#147=PLANE('',#796);
#148=LINE('',#1000,#196);
#149=LINE('',#1003,#197);
#150=LINE('',#1005,#198);
#151=LINE('',#1007,#199);
#152=LINE('',#1013,#200);
#153=LINE('',#1016,#201);
#154=LINE('',#1018,#202);
#155=LINE('',#1020,#203);
#156=LINE('',#1022,#204);
#157=LINE('',#1024,#205);
#158=LINE('',#1026,#206);
#159=LINE('',#1028,#207);
#160=LINE('',#1030,#208);
#161=LINE('',#1032,#209);
#162=LINE('',#1034,#210);
#163=LINE('',#1036,#211);
#164=LINE('',#1038,#212);
#165=LINE('',#1039,#213);
#166=LINE('',#1041,#214);
#167=LINE('',#1043,#215);
#168=LINE('',#1045,#216);
#169=LINE('',#1047,#217);
#170=LINE('',#1048,#218);
#171=LINE('',#1050,#219);
#172=LINE('',#1052,#220);
#173=LINE('',#1054,#221);
#174=LINE('',#1056,#222);
#175=LINE('',#1058,#223);
#176=LINE('',#1060,#224);
#177=LINE('',#1062,#225);
#178=LINE('',#1075,#226);
#179=LINE('',#1078,#227);
#180=LINE('',#1079,#228);
#181=LINE('',#1080,#229);
#182=LINE('',#1082,#230);
#183=LINE('',#1084,#231);
#184=LINE('',#1086,#232);
#185=LINE('',#1088,#233);
#186=LINE('',#1090,#234);
#187=LINE('',#1092,#235);
#188=LINE('',#1103,#236);
#189=LINE('',#1104,#237);
#190=LINE('',#1109,#238);
#191=LINE('',#1113,#239);
#192=LINE('',#1114,#240);
#193=LINE('',#1116,#241);
#194=LINE('',#1117,#242);
#195=LINE('',#1132,#243);
#196=VECTOR('',#803,1.);
#197=VECTOR('',#804,1.);
#198=VECTOR('',#805,1.);
#199=VECTOR('',#806,1.);
#200=VECTOR('',#813,1.);
#201=VECTOR('',#814,1.);
#202=VECTOR('',#815,1.);
#203=VECTOR('',#816,1.);
#204=VECTOR('',#819,1.);
#205=VECTOR('',#820,1.);
#206=VECTOR('',#821,1.);
#207=VECTOR('',#822,1.);
#208=VECTOR('',#825,1.);
#209=VECTOR('',#826,1.);
#210=VECTOR('',#827,1.);
#211=VECTOR('',#828,1.);
#212=VECTOR('',#831,1.);
#213=VECTOR('',#832,1.);
#214=VECTOR('',#833,1.);
#215=VECTOR('',#836,1.);
#216=VECTOR('',#837,1.);
#217=VECTOR('',#840,1.);
#218=VECTOR('',#841,1.);
#219=VECTOR('',#842,1.);
#220=VECTOR('',#843,1.);
#221=VECTOR('',#844,1.);
#222=VECTOR('',#845,1.);
#223=VECTOR('',#846,1.);
#224=VECTOR('',#847,1.);
#225=VECTOR('',#848,1.);
#226=VECTOR('',#865,1.);
#227=VECTOR('',#866,1.);
#228=VECTOR('',#867,1.);
#229=VECTOR('',#868,1.);
#230=VECTOR('',#869,1.);
#231=VECTOR('',#870,1.);
#232=VECTOR('',#871,1.);
#233=VECTOR('',#872,1.);
#234=VECTOR('',#873,1.);
#235=VECTOR('',#876,1.);
#236=VECTOR('',#889,1.);
#237=VECTOR('',#890,1.);
#238=VECTOR('',#895,1.);
#239=VECTOR('',#898,1.);
#240=VECTOR('',#899,1.);
#241=VECTOR('',#902,1.);
#242=VECTOR('',#903,1.);
#243=VECTOR('',#920,1.);
#244=FACE_BOUND('',#312,.T.);
#245=FACE_BOUND('',#313,.T.);
#246=FACE_BOUND('',#314,.T.);
#247=FACE_BOUND('',#315,.T.);
#248=FACE_BOUND('',#316,.T.);
#249=FACE_BOUND('',#324,.T.);
#250=FACE_BOUND('',#325,.T.);
#251=FACE_BOUND('',#326,.T.);
#252=FACE_BOUND('',#327,.T.);
#253=FACE_BOUND('',#331,.T.);
#254=FACE_BOUND('',#332,.T.);
#255=FACE_BOUND('',#333,.T.);
#256=FACE_BOUND('',#334,.T.);
#257=FACE_BOUND('',#335,.T.);
#258=FACE_BOUND('',#337,.T.);
#259=FACE_BOUND('',#338,.T.);
#260=FACE_BOUND('',#339,.T.);
#261=FACE_BOUND('',#340,.T.);
#262=FACE_BOUND('',#341,.T.);
#263=FACE_BOUND('',#342,.T.);
#264=FACE_BOUND('',#343,.T.);
#265=FACE_BOUND('',#344,.T.);
#266=FACE_BOUND('',#345,.T.);
#267=FACE_BOUND('',#346,.T.);
#268=FACE_BOUND('',#347,.T.);
#269=FACE_BOUND('',#348,.T.);
#270=FACE_BOUND('',#349,.T.);
#271=FACE_BOUND('',#350,.T.);
#272=FACE_BOUND('',#352,.T.);
#273=FACE_BOUND('',#353,.T.);
#274=FACE_BOUND('',#354,.T.);
#275=FACE_BOUND('',#355,.T.);
#276=FACE_BOUND('',#356,.T.);
#277=FACE_BOUND('',#357,.T.);
#278=FACE_BOUND('',#358,.T.);
#279=FACE_BOUND('',#359,.T.);
#280=FACE_BOUND('',#360,.T.);
#281=FACE_BOUND('',#361,.T.);
#282=FACE_BOUND('',#362,.T.);
#283=FACE_BOUND('',#363,.T.);
#284=FACE_BOUND('',#364,.T.);
#285=FACE_BOUND('',#365,.T.);
#286=FACE_BOUND('',#366,.T.);
#287=FACE_BOUND('',#367,.T.);
#288=FACE_BOUND('',#368,.T.);
#289=FACE_BOUND('',#369,.T.);
#290=FACE_BOUND('',#370,.T.);
#291=FACE_BOUND('',#371,.T.);
#292=FACE_BOUND('',#372,.T.);
#293=FACE_BOUND('',#373,.T.);
#294=FACE_BOUND('',#374,.T.);
#295=FACE_BOUND('',#375,.T.);
#296=FACE_BOUND('',#376,.T.);
#297=FACE_BOUND('',#377,.T.);
#298=FACE_BOUND('',#378,.T.);
#299=FACE_BOUND('',#379,.T.);
#300=FACE_BOUND('',#380,.T.);
#301=FACE_BOUND('',#381,.T.);
#302=FACE_BOUND('',#382,.T.);
#303=FACE_BOUND('',#383,.T.);
#304=FACE_BOUND('',#384,.T.);
#305=FACE_BOUND('',#385,.T.);
#306=FACE_BOUND('',#386,.T.);
#307=FACE_BOUND('',#387,.T.);
#308=FACE_BOUND('',#388,.T.);
#309=FACE_BOUND('',#389,.T.);
#310=FACE_BOUND('',#390,.T.);
#311=FACE_BOUND('',#391,.T.);
#312=EDGE_LOOP('',(#392));
#313=EDGE_LOOP('',(#393));
#314=EDGE_LOOP('',(#394,#395,#396,#397));
#315=EDGE_LOOP('',(#398));
#316=EDGE_LOOP('',(#399));
#317=EDGE_LOOP('',(#400,#401,#402,#403));
#318=EDGE_LOOP('',(#404,#405,#406,#407,#408));
#319=EDGE_LOOP('',(#409,#410,#411,#412,#413));
#320=EDGE_LOOP('',(#414,#415,#416,#417,#418));
#321=EDGE_LOOP('',(#419,#420,#421,#422));
#322=EDGE_LOOP('',(#423,#424,#425,#426,#427,#428,#429,#430,#431,#432,#433,
#434,#435,#436));
#323=EDGE_LOOP('',(#437,#438,#439,#440));
#324=EDGE_LOOP('',(#441));
#325=EDGE_LOOP('',(#442));
#326=EDGE_LOOP('',(#443));
#327=EDGE_LOOP('',(#444));
#328=EDGE_LOOP('',(#445,#446,#447,#448,#449,#450,#451,#452,#453,#454,#455));
#329=EDGE_LOOP('',(#456,#457,#458,#459));
#330=EDGE_LOOP('',(#460,#461,#462,#463));
#331=EDGE_LOOP('',(#464));
#332=EDGE_LOOP('',(#465));
#333=EDGE_LOOP('',(#466));
#334=EDGE_LOOP('',(#467));
#335=EDGE_LOOP('',(#468,#469,#470,#471));
#336=EDGE_LOOP('',(#472,#473,#474,#475,#476,#477,#478,#479));
#337=EDGE_LOOP('',(#480));
#338=EDGE_LOOP('',(#481));
#339=EDGE_LOOP('',(#482,#483,#484,#485));
#340=EDGE_LOOP('',(#486));
#341=EDGE_LOOP('',(#487));
#342=EDGE_LOOP('',(#488));
#343=EDGE_LOOP('',(#489));
#344=EDGE_LOOP('',(#490,#491,#492,#493));
#345=EDGE_LOOP('',(#494));
#346=EDGE_LOOP('',(#495));
#347=EDGE_LOOP('',(#496,#497,#498,#499));
#348=EDGE_LOOP('',(#500));
#349=EDGE_LOOP('',(#501));
#350=EDGE_LOOP('',(#502,#503,#504,#505,#506,#507,#508,#509));
#351=EDGE_LOOP('',(#510,#511,#512,#513));
#352=EDGE_LOOP('',(#514));
#353=EDGE_LOOP('',(#515));
#354=EDGE_LOOP('',(#516));
#355=EDGE_LOOP('',(#517));
#356=EDGE_LOOP('',(#518));
#357=EDGE_LOOP('',(#519));
#358=EDGE_LOOP('',(#520));
#359=EDGE_LOOP('',(#521));
#360=EDGE_LOOP('',(#522));
#361=EDGE_LOOP('',(#523));
#362=EDGE_LOOP('',(#524));
#363=EDGE_LOOP('',(#525));
#364=EDGE_LOOP('',(#526));
#365=EDGE_LOOP('',(#527,#528));
#366=EDGE_LOOP('',(#529));
#367=EDGE_LOOP('',(#530,#531));
#368=EDGE_LOOP('',(#532));
#369=EDGE_LOOP('',(#533));
#370=EDGE_LOOP('',(#534));
#371=EDGE_LOOP('',(#535));
#372=EDGE_LOOP('',(#536));
#373=EDGE_LOOP('',(#537));
#374=EDGE_LOOP('',(#538));
#375=EDGE_LOOP('',(#539));
#376=EDGE_LOOP('',(#540));
#377=EDGE_LOOP('',(#541));
#378=EDGE_LOOP('',(#542));
#379=EDGE_LOOP('',(#543));
#380=EDGE_LOOP('',(#544));
#381=EDGE_LOOP('',(#545));
#382=EDGE_LOOP('',(#546));
#383=EDGE_LOOP('',(#547));
#384=EDGE_LOOP('',(#548));
#385=EDGE_LOOP('',(#549));
#386=EDGE_LOOP('',(#550));
#387=EDGE_LOOP('',(#551));
#388=EDGE_LOOP('',(#552));
#389=EDGE_LOOP('',(#553));
#390=EDGE_LOOP('',(#554));
#391=EDGE_LOOP('',(#555));
#392=ORIENTED_EDGE('',*,*,#620,.T.);
#393=ORIENTED_EDGE('',*,*,#621,.T.);
#394=ORIENTED_EDGE('',*,*,#622,.F.);
#395=ORIENTED_EDGE('',*,*,#623,.T.);
#396=ORIENTED_EDGE('',*,*,#624,.F.);
#397=ORIENTED_EDGE('',*,*,#625,.F.);
#398=ORIENTED_EDGE('',*,*,#626,.T.);
#399=ORIENTED_EDGE('',*,*,#627,.T.);
#400=ORIENTED_EDGE('',*,*,#628,.F.);
#401=ORIENTED_EDGE('',*,*,#629,.T.);
#402=ORIENTED_EDGE('',*,*,#630,.F.);
#403=ORIENTED_EDGE('',*,*,#631,.F.);
#404=ORIENTED_EDGE('',*,*,#630,.T.);
#405=ORIENTED_EDGE('',*,*,#632,.T.);
#406=ORIENTED_EDGE('',*,*,#633,.F.);
#407=ORIENTED_EDGE('',*,*,#634,.T.);
#408=ORIENTED_EDGE('',*,*,#635,.T.);
#409=ORIENTED_EDGE('',*,*,#633,.T.);
#410=ORIENTED_EDGE('',*,*,#636,.T.);
#411=ORIENTED_EDGE('',*,*,#637,.F.);
#412=ORIENTED_EDGE('',*,*,#638,.T.);
#413=ORIENTED_EDGE('',*,*,#639,.T.);
#414=ORIENTED_EDGE('',*,*,#637,.T.);
#415=ORIENTED_EDGE('',*,*,#640,.T.);
#416=ORIENTED_EDGE('',*,*,#628,.T.);
#417=ORIENTED_EDGE('',*,*,#641,.F.);
#418=ORIENTED_EDGE('',*,*,#642,.T.);
#419=ORIENTED_EDGE('',*,*,#643,.F.);
#420=ORIENTED_EDGE('',*,*,#638,.F.);
#421=ORIENTED_EDGE('',*,*,#642,.F.);
#422=ORIENTED_EDGE('',*,*,#644,.F.);
#423=ORIENTED_EDGE('',*,*,#641,.T.);
#424=ORIENTED_EDGE('',*,*,#631,.T.);
#425=ORIENTED_EDGE('',*,*,#635,.F.);
#426=ORIENTED_EDGE('',*,*,#645,.F.);
#427=ORIENTED_EDGE('',*,*,#624,.T.);
#428=ORIENTED_EDGE('',*,*,#646,.T.);
#429=ORIENTED_EDGE('',*,*,#647,.F.);
#430=ORIENTED_EDGE('',*,*,#648,.F.);
#431=ORIENTED_EDGE('',*,*,#649,.F.);
#432=ORIENTED_EDGE('',*,*,#650,.T.);
#433=ORIENTED_EDGE('',*,*,#651,.F.);
#434=ORIENTED_EDGE('',*,*,#652,.T.);
#435=ORIENTED_EDGE('',*,*,#653,.T.);
#436=ORIENTED_EDGE('',*,*,#644,.T.);
#437=ORIENTED_EDGE('',*,*,#632,.F.);
#438=ORIENTED_EDGE('',*,*,#629,.F.);
#439=ORIENTED_EDGE('',*,*,#640,.F.);
#440=ORIENTED_EDGE('',*,*,#636,.F.);
#441=ORIENTED_EDGE('',*,*,#654,.T.);
#442=ORIENTED_EDGE('',*,*,#655,.T.);
#443=ORIENTED_EDGE('',*,*,#656,.T.);
#444=ORIENTED_EDGE('',*,*,#657,.T.);
#445=ORIENTED_EDGE('',*,*,#658,.T.);
#446=ORIENTED_EDGE('',*,*,#659,.T.);
#447=ORIENTED_EDGE('',*,*,#622,.T.);
#448=ORIENTED_EDGE('',*,*,#660,.T.);
#449=ORIENTED_EDGE('',*,*,#639,.F.);
#450=ORIENTED_EDGE('',*,*,#661,.F.);
#451=ORIENTED_EDGE('',*,*,#662,.T.);
#452=ORIENTED_EDGE('',*,*,#663,.F.);
#453=ORIENTED_EDGE('',*,*,#664,.F.);
#454=ORIENTED_EDGE('',*,*,#665,.F.);
#455=ORIENTED_EDGE('',*,*,#666,.F.);
#456=ORIENTED_EDGE('',*,*,#667,.T.);
#457=ORIENTED_EDGE('',*,*,#661,.T.);
#458=ORIENTED_EDGE('',*,*,#643,.T.);
#459=ORIENTED_EDGE('',*,*,#653,.F.);
#460=ORIENTED_EDGE('',*,*,#634,.F.);
#461=ORIENTED_EDGE('',*,*,#660,.F.);
#462=ORIENTED_EDGE('',*,*,#625,.T.);
#463=ORIENTED_EDGE('',*,*,#645,.T.);
#464=ORIENTED_EDGE('',*,*,#668,.F.);
#465=ORIENTED_EDGE('',*,*,#669,.F.);
#466=ORIENTED_EDGE('',*,*,#670,.F.);
#467=ORIENTED_EDGE('',*,*,#671,.F.);
#468=ORIENTED_EDGE('',*,*,#672,.T.);
#469=ORIENTED_EDGE('',*,*,#648,.T.);
#470=ORIENTED_EDGE('',*,*,#673,.T.);
#471=ORIENTED_EDGE('',*,*,#666,.T.);
#472=ORIENTED_EDGE('',*,*,#674,.F.);
#473=ORIENTED_EDGE('',*,*,#675,.T.);
#474=ORIENTED_EDGE('',*,*,#676,.F.);
#475=ORIENTED_EDGE('',*,*,#677,.T.);
#476=ORIENTED_EDGE('',*,*,#649,.T.);
#477=ORIENTED_EDGE('',*,*,#672,.F.);
#478=ORIENTED_EDGE('',*,*,#665,.T.);
#479=ORIENTED_EDGE('',*,*,#678,.T.);
#480=ORIENTED_EDGE('',*,*,#655,.F.);
#481=ORIENTED_EDGE('',*,*,#657,.F.);
#482=ORIENTED_EDGE('',*,*,#679,.T.);
#483=ORIENTED_EDGE('',*,*,#663,.T.);
#484=ORIENTED_EDGE('',*,*,#680,.T.);
#485=ORIENTED_EDGE('',*,*,#651,.T.);
#486=ORIENTED_EDGE('',*,*,#681,.F.);
#487=ORIENTED_EDGE('',*,*,#682,.F.);
#488=ORIENTED_EDGE('',*,*,#683,.F.);
#489=ORIENTED_EDGE('',*,*,#684,.F.);
#490=ORIENTED_EDGE('',*,*,#680,.F.);
#491=ORIENTED_EDGE('',*,*,#662,.F.);
#492=ORIENTED_EDGE('',*,*,#667,.F.);
#493=ORIENTED_EDGE('',*,*,#652,.F.);
#494=ORIENTED_EDGE('',*,*,#685,.T.);
#495=ORIENTED_EDGE('',*,*,#686,.T.);
#496=ORIENTED_EDGE('',*,*,#647,.T.);
#497=ORIENTED_EDGE('',*,*,#687,.T.);
#498=ORIENTED_EDGE('',*,*,#658,.F.);
#499=ORIENTED_EDGE('',*,*,#673,.F.);
#500=ORIENTED_EDGE('',*,*,#688,.F.);
#501=ORIENTED_EDGE('',*,*,#689,.F.);
#502=ORIENTED_EDGE('',*,*,#677,.F.);
#503=ORIENTED_EDGE('',*,*,#690,.F.);
#504=ORIENTED_EDGE('',*,*,#675,.F.);
#505=ORIENTED_EDGE('',*,*,#691,.F.);
#506=ORIENTED_EDGE('',*,*,#678,.F.);
#507=ORIENTED_EDGE('',*,*,#664,.T.);
#508=ORIENTED_EDGE('',*,*,#679,.F.);
#509=ORIENTED_EDGE('',*,*,#650,.F.);
#510=ORIENTED_EDGE('',*,*,#659,.F.);
#511=ORIENTED_EDGE('',*,*,#687,.F.);
#512=ORIENTED_EDGE('',*,*,#646,.F.);
#513=ORIENTED_EDGE('',*,*,#623,.F.);
#514=ORIENTED_EDGE('',*,*,#692,.F.);
#515=ORIENTED_EDGE('',*,*,#654,.F.);
#516=ORIENTED_EDGE('',*,*,#692,.T.);
#517=ORIENTED_EDGE('',*,*,#686,.F.);
#518=ORIENTED_EDGE('',*,*,#693,.F.);
#519=ORIENTED_EDGE('',*,*,#656,.F.);
#520=ORIENTED_EDGE('',*,*,#693,.T.);
#521=ORIENTED_EDGE('',*,*,#685,.F.);
#522=ORIENTED_EDGE('',*,*,#671,.T.);
#523=ORIENTED_EDGE('',*,*,#689,.T.);
#524=ORIENTED_EDGE('',*,*,#670,.T.);
#525=ORIENTED_EDGE('',*,*,#688,.T.);
#526=ORIENTED_EDGE('',*,*,#669,.T.);
#527=ORIENTED_EDGE('',*,*,#690,.T.);
#528=ORIENTED_EDGE('',*,*,#676,.T.);
#529=ORIENTED_EDGE('',*,*,#668,.T.);
#530=ORIENTED_EDGE('',*,*,#691,.T.);
#531=ORIENTED_EDGE('',*,*,#674,.T.);
#532=ORIENTED_EDGE('',*,*,#684,.T.);
#533=ORIENTED_EDGE('',*,*,#694,.T.);
#534=ORIENTED_EDGE('',*,*,#621,.F.);
#535=ORIENTED_EDGE('',*,*,#695,.F.);
#536=ORIENTED_EDGE('',*,*,#695,.T.);
#537=ORIENTED_EDGE('',*,*,#694,.F.);
#538=ORIENTED_EDGE('',*,*,#683,.T.);
#539=ORIENTED_EDGE('',*,*,#696,.T.);
#540=ORIENTED_EDGE('',*,*,#627,.F.);
#541=ORIENTED_EDGE('',*,*,#697,.F.);
#542=ORIENTED_EDGE('',*,*,#697,.T.);
#543=ORIENTED_EDGE('',*,*,#696,.F.);
#544=ORIENTED_EDGE('',*,*,#682,.T.);
#545=ORIENTED_EDGE('',*,*,#698,.T.);
#546=ORIENTED_EDGE('',*,*,#620,.F.);
#547=ORIENTED_EDGE('',*,*,#699,.F.);
#548=ORIENTED_EDGE('',*,*,#699,.T.);
#549=ORIENTED_EDGE('',*,*,#698,.F.);
#550=ORIENTED_EDGE('',*,*,#681,.T.);
#551=ORIENTED_EDGE('',*,*,#700,.T.);
#552=ORIENTED_EDGE('',*,*,#626,.F.);
#553=ORIENTED_EDGE('',*,*,#701,.F.);
#554=ORIENTED_EDGE('',*,*,#701,.T.);
#555=ORIENTED_EDGE('',*,*,#700,.F.);
#556=VERTEX_POINT('',#997);
#557=VERTEX_POINT('',#999);
#558=VERTEX_POINT('',#1001);
#559=VERTEX_POINT('',#1002);
#560=VERTEX_POINT('',#1004);
#561=VERTEX_POINT('',#1006);
#562=VERTEX_POINT('',#1009);
#563=VERTEX_POINT('',#1011);
#564=VERTEX_POINT('',#1014);
#565=VERTEX_POINT('',#1015);
#566=VERTEX_POINT('',#1017);
#567=VERTEX_POINT('',#1019);
#568=VERTEX_POINT('',#1023);
#569=VERTEX_POINT('',#1025);
#570=VERTEX_POINT('',#1027);
#571=VERTEX_POINT('',#1031);
#572=VERTEX_POINT('',#1033);
#573=VERTEX_POINT('',#1035);
#574=VERTEX_POINT('',#1040);
#575=VERTEX_POINT('',#1044);
#576=VERTEX_POINT('',#1049);
#577=VERTEX_POINT('',#1051);
#578=VERTEX_POINT('',#1053);
#579=VERTEX_POINT('',#1055);
#580=VERTEX_POINT('',#1057);
#581=VERTEX_POINT('',#1059);
#582=VERTEX_POINT('',#1061);
#583=VERTEX_POINT('',#1066);
#584=VERTEX_POINT('',#1068);
#585=VERTEX_POINT('',#1071);
#586=VERTEX_POINT('',#1073);
#587=VERTEX_POINT('',#1076);
#588=VERTEX_POINT('',#1077);
#589=VERTEX_POINT('',#1081);
#590=VERTEX_POINT('',#1083);
#591=VERTEX_POINT('',#1085);
#592=VERTEX_POINT('',#1087);
#593=VERTEX_POINT('',#1089);
#594=VERTEX_POINT('',#1096);
#595=VERTEX_POINT('',#1098);
#596=VERTEX_POINT('',#1100);
#597=VERTEX_POINT('',#1102);
#598=VERTEX_POINT('',#1107);
#599=VERTEX_POINT('',#1108);
#600=VERTEX_POINT('',#1110);
#601=VERTEX_POINT('',#1112);
#602=VERTEX_POINT('',#1120);
#603=VERTEX_POINT('',#1122);
#604=VERTEX_POINT('',#1124);
#605=VERTEX_POINT('',#1126);
#606=VERTEX_POINT('',#1129);
#607=VERTEX_POINT('',#1131);
#608=VERTEX_POINT('',#1135);
#609=VERTEX_POINT('',#1137);
#610=VERTEX_POINT('',#1143);
#611=VERTEX_POINT('',#1147);
#612=VERTEX_POINT('',#1155);
#613=VERTEX_POINT('',#1158);
#614=VERTEX_POINT('',#1162);
#615=VERTEX_POINT('',#1165);
#616=VERTEX_POINT('',#1169);
#617=VERTEX_POINT('',#1172);
#618=VERTEX_POINT('',#1176);
#619=VERTEX_POINT('',#1179);
#620=EDGE_CURVE('',#556,#556,#702,.T.);
#621=EDGE_CURVE('',#557,#557,#703,.T.);
#622=EDGE_CURVE('',#558,#559,#148,.T.);
#623=EDGE_CURVE('',#558,#560,#149,.T.);
#624=EDGE_CURVE('',#561,#560,#150,.T.);
#625=EDGE_CURVE('',#559,#561,#151,.T.);
#626=EDGE_CURVE('',#562,#562,#704,.T.);
#627=EDGE_CURVE('',#563,#563,#705,.T.);
#628=EDGE_CURVE('',#564,#565,#152,.T.);
#629=EDGE_CURVE('',#564,#566,#153,.T.);
#630=EDGE_CURVE('',#567,#566,#154,.T.);
#631=EDGE_CURVE('',#565,#567,#155,.T.);
#632=EDGE_CURVE('',#566,#568,#156,.T.);
#633=EDGE_CURVE('',#569,#568,#157,.T.);
#634=EDGE_CURVE('',#569,#570,#158,.T.);
#635=EDGE_CURVE('',#570,#567,#159,.T.);
#636=EDGE_CURVE('',#568,#571,#160,.T.);
#637=EDGE_CURVE('',#572,#571,#161,.T.);
#638=EDGE_CURVE('',#572,#573,#162,.T.);
#639=EDGE_CURVE('',#573,#569,#163,.T.);
#640=EDGE_CURVE('',#571,#564,#164,.T.);
#641=EDGE_CURVE('',#574,#565,#165,.T.);
#642=EDGE_CURVE('',#574,#572,#166,.T.);
#643=EDGE_CURVE('',#573,#575,#167,.T.);
#644=EDGE_CURVE('',#575,#574,#168,.T.);
#645=EDGE_CURVE('',#561,#570,#169,.T.);
#646=EDGE_CURVE('',#560,#576,#170,.T.);
#647=EDGE_CURVE('',#577,#576,#171,.T.);
#648=EDGE_CURVE('',#578,#577,#172,.T.);
#649=EDGE_CURVE('',#579,#578,#173,.T.);
#650=EDGE_CURVE('',#579,#580,#174,.T.);
#651=EDGE_CURVE('',#581,#580,#175,.T.);
#652=EDGE_CURVE('',#581,#582,#176,.T.);
#653=EDGE_CURVE('',#582,#575,#177,.T.);
#654=EDGE_CURVE('',#583,#583,#706,.T.);
#655=EDGE_CURVE('',#584,#584,#707,.T.);
#656=EDGE_CURVE('',#585,#585,#708,.T.);
#657=EDGE_CURVE('',#586,#586,#709,.T.);
#658=EDGE_CURVE('',#587,#588,#178,.T.);
#659=EDGE_CURVE('',#588,#558,#179,.T.);
#660=EDGE_CURVE('',#559,#569,#180,.T.);
#661=EDGE_CURVE('',#589,#573,#181,.T.);
#662=EDGE_CURVE('',#589,#590,#182,.T.);
#663=EDGE_CURVE('',#591,#590,#183,.T.);
#664=EDGE_CURVE('',#592,#591,#184,.T.);
#665=EDGE_CURVE('',#593,#592,#185,.T.);
#666=EDGE_CURVE('',#587,#593,#186,.T.);
#667=EDGE_CURVE('',#582,#589,#187,.T.);
#668=EDGE_CURVE('',#594,#594,#42,.T.);
#669=EDGE_CURVE('',#595,#595,#43,.T.);
#670=EDGE_CURVE('',#596,#596,#44,.T.);
#671=EDGE_CURVE('',#597,#597,#45,.T.);
#672=EDGE_CURVE('',#593,#578,#188,.T.);
#673=EDGE_CURVE('',#577,#587,#189,.T.);
#674=EDGE_CURVE('',#598,#599,#46,.T.);
#675=EDGE_CURVE('',#598,#600,#190,.T.);
#676=EDGE_CURVE('',#601,#600,#47,.T.);
#677=EDGE_CURVE('',#601,#579,#191,.T.);
#678=EDGE_CURVE('',#592,#599,#192,.T.);
#679=EDGE_CURVE('',#580,#591,#193,.T.);
#680=EDGE_CURVE('',#590,#581,#194,.T.);
#681=EDGE_CURVE('',#602,#602,#48,.T.);
#682=EDGE_CURVE('',#603,#603,#49,.T.);
#683=EDGE_CURVE('',#604,#604,#50,.T.);
#684=EDGE_CURVE('',#605,#605,#51,.T.);
#685=EDGE_CURVE('',#606,#606,#710,.T.);
#686=EDGE_CURVE('',#607,#607,#711,.T.);
#687=EDGE_CURVE('',#576,#588,#195,.T.);
#688=EDGE_CURVE('',#608,#608,#52,.T.);
#689=EDGE_CURVE('',#609,#609,#53,.T.);
#690=EDGE_CURVE('',#600,#601,#54,.T.);
#691=EDGE_CURVE('',#599,#598,#55,.T.);
#692=EDGE_CURVE('',#610,#610,#712,.T.);
#693=EDGE_CURVE('',#611,#611,#713,.T.);
#694=EDGE_CURVE('',#612,#612,#714,.T.);
#695=EDGE_CURVE('',#613,#613,#715,.T.);
#696=EDGE_CURVE('',#614,#614,#716,.T.);
#697=EDGE_CURVE('',#615,#615,#717,.T.);
#698=EDGE_CURVE('',#616,#616,#718,.T.);
#699=EDGE_CURVE('',#617,#617,#719,.T.);
#700=EDGE_CURVE('',#618,#618,#720,.T.);
#701=EDGE_CURVE('',#619,#619,#721,.T.);
#702=CIRCLE('',#723,1.75);
#703=CIRCLE('',#724,1.75);
#704=CIRCLE('',#725,1.75);
#705=CIRCLE('',#726,1.75);
#706=CIRCLE('',#735,3.25);
#707=CIRCLE('',#736,3.25);
#708=CIRCLE('',#738,3.25);
#709=CIRCLE('',#739,3.25);
#710=CIRCLE('',#758,7.5);
#711=CIRCLE('',#759,7.5);
#712=CIRCLE('',#767,7.5);
#713=CIRCLE('',#770,7.5);
#714=CIRCLE('',#777,3.5);
#715=CIRCLE('',#779,1.75);
#716=CIRCLE('',#782,3.5);
#717=CIRCLE('',#784,1.75);
#718=CIRCLE('',#787,3.5);
#719=CIRCLE('',#789,1.75);
#720=CIRCLE('',#792,3.5);
#721=CIRCLE('',#794,1.75);
#722=AXIS2_PLACEMENT_3D('',#995,#797,#798);
#723=AXIS2_PLACEMENT_3D('',#996,#799,#800);
#724=AXIS2_PLACEMENT_3D('',#998,#801,#802);
#725=AXIS2_PLACEMENT_3D('',#1008,#807,#808);
#726=AXIS2_PLACEMENT_3D('',#1010,#809,#810);
#727=AXIS2_PLACEMENT_3D('',#1012,#811,#812);
#728=AXIS2_PLACEMENT_3D('',#1021,#817,#818);
#729=AXIS2_PLACEMENT_3D('',#1029,#823,#824);
#730=AXIS2_PLACEMENT_3D('',#1037,#829,#830);
#731=AXIS2_PLACEMENT_3D('',#1042,#834,#835);
#732=AXIS2_PLACEMENT_3D('',#1046,#838,#839);
#733=AXIS2_PLACEMENT_3D('',#1063,#849,#850);
#734=AXIS2_PLACEMENT_3D('',#1064,#851,#852);
#735=AXIS2_PLACEMENT_3D('',#1065,#853,#854);
#736=AXIS2_PLACEMENT_3D('',#1067,#855,#856);
#737=AXIS2_PLACEMENT_3D('',#1069,#857,#858);
#738=AXIS2_PLACEMENT_3D('',#1070,#859,#860);
#739=AXIS2_PLACEMENT_3D('',#1072,#861,#862);
#740=AXIS2_PLACEMENT_3D('',#1074,#863,#864);
#741=AXIS2_PLACEMENT_3D('',#1091,#874,#875);
#742=AXIS2_PLACEMENT_3D('',#1093,#877,#878);
#743=AXIS2_PLACEMENT_3D('',#1094,#879,#880);
#744=AXIS2_PLACEMENT_3D('',#1095,#881,#882);
#745=AXIS2_PLACEMENT_3D('',#1097,#883,#884);
#746=AXIS2_PLACEMENT_3D('',#1099,#885,#886);
#747=AXIS2_PLACEMENT_3D('',#1101,#887,#888);
#748=AXIS2_PLACEMENT_3D('',#1105,#891,#892);
#749=AXIS2_PLACEMENT_3D('',#1106,#893,#894);
#750=AXIS2_PLACEMENT_3D('',#1111,#896,#897);
#751=AXIS2_PLACEMENT_3D('',#1115,#900,#901);
#752=AXIS2_PLACEMENT_3D('',#1118,#904,#905);
#753=AXIS2_PLACEMENT_3D('',#1119,#906,#907);
#754=AXIS2_PLACEMENT_3D('',#1121,#908,#909);
#755=AXIS2_PLACEMENT_3D('',#1123,#910,#911);
#756=AXIS2_PLACEMENT_3D('',#1125,#912,#913);
#757=AXIS2_PLACEMENT_3D('',#1127,#914,#915);
#758=AXIS2_PLACEMENT_3D('',#1128,#916,#917);
#759=AXIS2_PLACEMENT_3D('',#1130,#918,#919);
#760=AXIS2_PLACEMENT_3D('',#1133,#921,#922);
#761=AXIS2_PLACEMENT_3D('',#1134,#923,#924);
#762=AXIS2_PLACEMENT_3D('',#1136,#925,#926);
#763=AXIS2_PLACEMENT_3D('',#1138,#927,#928);
#764=AXIS2_PLACEMENT_3D('',#1139,#929,#930);
#765=AXIS2_PLACEMENT_3D('',#1140,#931,#932);
#766=AXIS2_PLACEMENT_3D('',#1141,#933,#934);
#767=AXIS2_PLACEMENT_3D('',#1142,#935,#936);
#768=AXIS2_PLACEMENT_3D('',#1144,#937,#938);
#769=AXIS2_PLACEMENT_3D('',#1145,#939,#940);
#770=AXIS2_PLACEMENT_3D('',#1146,#941,#942);
#771=AXIS2_PLACEMENT_3D('',#1148,#943,#944);
#772=AXIS2_PLACEMENT_3D('',#1149,#945,#946);
#773=AXIS2_PLACEMENT_3D('',#1150,#947,#948);
#774=AXIS2_PLACEMENT_3D('',#1151,#949,#950);
#775=AXIS2_PLACEMENT_3D('',#1152,#951,#952);
#776=AXIS2_PLACEMENT_3D('',#1153,#953,#954);
#777=AXIS2_PLACEMENT_3D('',#1154,#955,#956);
#778=AXIS2_PLACEMENT_3D('',#1156,#957,#958);
#779=AXIS2_PLACEMENT_3D('',#1157,#959,#960);
#780=AXIS2_PLACEMENT_3D('',#1159,#961,#962);
#781=AXIS2_PLACEMENT_3D('',#1160,#963,#964);
#782=AXIS2_PLACEMENT_3D('',#1161,#965,#966);
#783=AXIS2_PLACEMENT_3D('',#1163,#967,#968);
#784=AXIS2_PLACEMENT_3D('',#1164,#969,#970);
#785=AXIS2_PLACEMENT_3D('',#1166,#971,#972);
#786=AXIS2_PLACEMENT_3D('',#1167,#973,#974);
#787=AXIS2_PLACEMENT_3D('',#1168,#975,#976);
#788=AXIS2_PLACEMENT_3D('',#1170,#977,#978);
#789=AXIS2_PLACEMENT_3D('',#1171,#979,#980);
#790=AXIS2_PLACEMENT_3D('',#1173,#981,#982);
#791=AXIS2_PLACEMENT_3D('',#1174,#983,#984);
#792=AXIS2_PLACEMENT_3D('',#1175,#985,#986);
#793=AXIS2_PLACEMENT_3D('',#1177,#987,#988);
#794=AXIS2_PLACEMENT_3D('',#1178,#989,#990);
#795=AXIS2_PLACEMENT_3D('',#1180,#991,#992);
#796=AXIS2_PLACEMENT_3D('',#1181,#993,#994);
#797=DIRECTION('',(0.,0.,1.));
#798=DIRECTION('',(1.,0.,0.));
#799=DIRECTION('',(-6.43929354282591E-15,0.,-1.));
#800=DIRECTION('',(1.,0.,-7.93016446160826E-15));
#801=DIRECTION('',(-6.43929354282591E-15,0.,-1.));
#802=DIRECTION('',(1.,0.,-7.93016446160826E-15));
#803=DIRECTION('',(0.,1.,0.));
#804=DIRECTION('',(1.,-4.46971798673249E-18,-6.43929354282591E-15));
#805=DIRECTION('',(0.,-1.,0.));
#806=DIRECTION('',(1.,0.,-6.41153796721028E-15));
#807=DIRECTION('',(-6.43929354282591E-15,0.,-1.));
#808=DIRECTION('',(1.,0.,-7.93016446160826E-15));
#809=DIRECTION('',(-6.43929354282591E-15,0.,-1.));
#810=DIRECTION('',(1.,0.,-7.93016446160826E-15));
#811=DIRECTION('',(6.43929354282591E-15,0.,1.));
#812=DIRECTION('',(1.,0.,-6.41153796721028E-15));
#813=DIRECTION('',(1.,0.,0.));
#814=DIRECTION('',(0.,-0.984807753012208,-0.17364817766693));
#815=DIRECTION('',(-1.,0.,0.));
#816=DIRECTION('',(0.,-0.984807753012208,-0.17364817766693));
#817=DIRECTION('',(0.,-0.17364817766693,0.984807753012208));
#818=DIRECTION('',(1.,0.,0.));
#819=DIRECTION('',(-0.893440760451441,0.0313332854905519,-0.44808685852669));
#820=DIRECTION('',(0.,-0.0697564737441201,0.997564050259825));
#821=DIRECTION('',(1.,4.66924768304888E-16,-6.67733527852124E-15));
#822=DIRECTION('',(0.,-0.0697564737441201,0.997564050259825));
#823=DIRECTION('',(0.,-0.997564050259825,-0.0697564737441201));
#824=DIRECTION('',(0.,0.0697564737441201,-0.997564050259825));
#825=DIRECTION('',(0.,0.984807753012208,0.17364817766693));
#826=DIRECTION('',(0.,-0.0697564737441201,0.997564050259825));
#827=DIRECTION('',(0.,-1.,0.));
#828=DIRECTION('',(0.,-1.,0.));
#829=DIRECTION('',(-1.,0.,0.));
#830=DIRECTION('',(0.,-0.17364817766693,0.984807753012208));
#831=DIRECTION('',(0.893440760451441,-0.0313332854905519,0.44808685852669));
#832=DIRECTION('',(0.,-0.0697564737441201,0.997564050259825));
#833=DIRECTION('',(-1.,-4.60953992658732E-16,6.59194920871187E-15));
#834=DIRECTION('',(0.,0.997564050259825,0.0697564737441201));
#835=DIRECTION('',(0.,-0.0697564737441201,0.997564050259825));
#836=DIRECTION('',(1.,0.,-6.56419363309624E-15));
#837=DIRECTION('',(0.,1.,0.));
#838=DIRECTION('',(6.59194920871187E-15,0.,1.));
#839=DIRECTION('',(1.,0.,-6.56419363309624E-15));
#840=DIRECTION('',(6.41153796721028E-15,0.,1.));
#841=DIRECTION('',(-6.06007226090749E-15,-0.326543109729943,-0.945182309127662));
#842=DIRECTION('',(6.02487491567618E-15,-0.342020143325669,0.939692620785908));
#843=DIRECTION('',(-2.19287513448322E-15,-0.939692620785909,-0.342020143325668));
#844=DIRECTION('',(-6.02487491567618E-15,0.342020143325669,-0.939692620785908));
#845=DIRECTION('',(-2.19287513448323E-15,-0.939692620785909,-0.342020143325669));
#846=DIRECTION('',(-6.02487491567618E-15,0.342020143325669,-0.939692620785908));
#847=DIRECTION('',(2.19287513448323E-15,0.939692620785908,0.342020143325669));
#848=DIRECTION('',(6.43929354282591E-15,0.,1.));
#849=DIRECTION('',(1.,0.,0.));
#850=DIRECTION('',(0.,0.17364817766693,-0.984807753012208));
#851=DIRECTION('',(0.447213595499958,0.155315651772887,-0.880838832201648));
#852=DIRECTION('',(0.,0.984807753012208,0.17364817766693));
#853=DIRECTION('',(-2.19287513448322E-15,-0.939692620785909,-0.342020143325668));
#854=DIRECTION('',(0.,-0.342020143325669,0.93969262078591));
#855=DIRECTION('',(2.2065682614425E-15,0.939692620785908,0.342020143325669));
#856=DIRECTION('',(0.,-0.342020143325669,0.93969262078591));
#857=DIRECTION('',(2.2065682614425E-15,0.939692620785908,0.342020143325669));
#858=DIRECTION('',(-6.4051328343759E-15,0.342020143325669,-0.93969262078591));
#859=DIRECTION('',(-2.19287513448322E-15,-0.939692620785909,-0.342020143325668));
#860=DIRECTION('',(0.,-0.342020143325668,0.93969262078591));
#861=DIRECTION('',(2.2065682614425E-15,0.939692620785908,0.342020143325669));
#862=DIRECTION('',(0.,-0.342020143325669,0.93969262078591));
#863=DIRECTION('',(2.2065682614425E-15,0.939692620785908,0.342020143325669));
#864=DIRECTION('',(-6.4051328343759E-15,0.342020143325669,-0.93969262078591));
#865=DIRECTION('',(-0.262297570806555,-0.330045005193204,0.906791199172113));
#866=DIRECTION('',(-0.263723627707786,0.314982923076282,0.911721232811305));
#867=DIRECTION('',(-0.277867840291294,0.,0.96061931238751));
#868=DIRECTION('',(-0.277867840291294,0.,0.96061931238751));
#869=DIRECTION('',(0.0984517940903556,-0.935127425988354,-0.340358548305733));
#870=DIRECTION('',(-0.262297570806555,-0.330045005193204,0.906791199172113));
#871=DIRECTION('',(0.0984517940903555,-0.935127425988354,-0.340358548305733));
#872=DIRECTION('',(-0.262297570806555,-0.330045005193204,0.906791199172113));
#873=DIRECTION('',(-0.0984517940903553,0.935127425988354,0.340358548305732));
#874=DIRECTION('',(-0.96061931238751,0.,-0.277867840291294));
#875=DIRECTION('',(0.277867840291294,0.,-0.96061931238751));
#876=DIRECTION('',(-1.,0.,6.43903692586902E-15));
#877=DIRECTION('',(0.,1.,0.));
#878=DIRECTION('',(-1.,0.,6.41153796721028E-15));
#879=DIRECTION('',(0.,1.,0.));
#880=DIRECTION('',(-1.,0.,6.41153796721028E-15));
#881=DIRECTION('',(-6.0507154842071E-15,0.342020143325668,-0.939692620785909));
#882=DIRECTION('',(1.66242041644035E-14,-0.939692620785909,-0.342020143325668));
#883=DIRECTION('',(-6.0507154842071E-15,0.342020143325668,-0.939692620785909));
#884=DIRECTION('',(1.66242041644035E-14,-0.939692620785909,-0.342020143325668));
#885=DIRECTION('',(-6.0507154842071E-15,0.342020143325668,-0.939692620785909));
#886=DIRECTION('',(1.66242041644035E-14,-0.939692620785909,-0.342020143325668));
#887=DIRECTION('',(-6.0507154842071E-15,0.342020143325668,-0.939692620785909));
#888=DIRECTION('',(1.66242041644035E-14,-0.939692620785909,-0.342020143325668));
#889=DIRECTION('',(1.,-4.02933540654921E-18,-6.44050348402088E-15));
#890=DIRECTION('',(-1.,4.02933540654921E-18,6.44050348402088E-15));
#891=DIRECTION('',(-6.0507154842071E-15,0.342020143325668,-0.939692620785909));
#892=DIRECTION('',(-2.20309881449055E-15,-0.939692620785908,-0.342020143325669));
#893=DIRECTION('',(2.2065682614425E-15,0.939692620785908,0.342020143325669));
#894=DIRECTION('',(8.03125167041594E-16,0.342020143325669,-0.939692620785908));
#895=DIRECTION('',(1.,-4.0293354065487E-18,-6.44050348402088E-15));
#896=DIRECTION('',(2.2065682614425E-15,0.939692620785908,0.342020143325669));
#897=DIRECTION('',(8.03125167041594E-16,0.342020143325669,-0.939692620785908));
#898=DIRECTION('',(1.,-4.0293354065487E-18,-6.44050348402088E-15));
#899=DIRECTION('',(1.,-4.0293354065487E-18,-6.44050348402088E-15));
#900=DIRECTION('',(2.2065682614425E-15,0.939692620785908,0.342020143325669));
#901=DIRECTION('',(-0.782260515401011,0.213061937896622,-0.585382863316207));
#902=DIRECTION('',(-1.,4.0293354065487E-18,6.44050348402088E-15));
#903=DIRECTION('',(1.,-4.02933540654806E-18,-6.44050348402088E-15));
#904=DIRECTION('',(2.2065682614425E-15,0.939692620785908,0.342020143325669));
#905=DIRECTION('',(-0.782260515401011,0.213061937896622,-0.585382863316207));
#906=DIRECTION('',(-6.05071548420711E-15,0.342020143325669,-0.939692620785909));
#907=DIRECTION('',(1.66242041644034E-14,-0.939692620785908,-0.342020143325669));
#908=DIRECTION('',(-6.05071548420711E-15,0.342020143325669,-0.939692620785909));
#909=DIRECTION('',(1.66242041644034E-14,-0.939692620785908,-0.342020143325669));
#910=DIRECTION('',(-6.05071548420711E-15,0.342020143325669,-0.939692620785909));
#911=DIRECTION('',(1.66242041644034E-14,-0.939692620785908,-0.342020143325669));
#912=DIRECTION('',(-6.05071548420711E-15,0.342020143325669,-0.939692620785909));
#913=DIRECTION('',(1.66242041644034E-14,-0.939692620785908,-0.342020143325669));
#914=DIRECTION('',(-6.0507154842071E-15,0.342020143325669,-0.939692620785908));
#915=DIRECTION('',(0.970730724076802,-0.225686431444695,-0.0821431433236349));
#916=DIRECTION('',(2.19287513448322E-15,0.939692620785909,0.342020143325668));
#917=DIRECTION('',(1.,-1.85037170770859E-15,-3.70074341541719E-15));
#918=DIRECTION('',(2.19287513448322E-15,0.939692620785909,0.342020143325668));
#919=DIRECTION('',(1.,-1.85037170770859E-15,-3.70074341541719E-15));
#920=DIRECTION('',(-1.,4.46971798673248E-18,6.43929354282591E-15));
#921=DIRECTION('',(-2.2065682614425E-15,-0.939692620785908,-0.342020143325669));
#922=DIRECTION('',(0.924516480814931,0.130358265039888,-0.358156389636378));
#923=DIRECTION('',(6.0507154842071E-15,-0.342020143325669,0.939692620785909));
#924=DIRECTION('',(1.66242041644035E-14,-0.939692620785909,-0.342020143325669));
#925=DIRECTION('',(6.0507154842071E-15,-0.342020143325669,0.939692620785909));
#926=DIRECTION('',(1.66242041644035E-14,-0.939692620785909,-0.342020143325669));
#927=DIRECTION('',(6.0507154842071E-15,-0.342020143325669,0.939692620785909));
#928=DIRECTION('',(1.66242041644035E-14,-0.939692620785909,-0.342020143325669));
#929=DIRECTION('',(6.0507154842071E-15,-0.342020143325669,0.939692620785909));
#930=DIRECTION('',(1.66242041644035E-14,-0.939692620785909,-0.342020143325669));
#931=DIRECTION('',(6.0507154842071E-15,-0.342020143325669,0.939692620785908));
#932=DIRECTION('',(2.20309881449055E-15,0.939692620785908,0.342020143325669));
#933=DIRECTION('',(-2.09848223957047E-15,0.945182309127661,-0.326543109729943));
#934=DIRECTION('',(1.,-6.93889390390723E-18,-6.43929354282591E-15));
#935=DIRECTION('',(2.19287513448322E-15,0.939692620785909,0.342020143325668));
#936=DIRECTION('',(1.,-1.38777878078145E-15,-3.70074341541719E-15));
#937=DIRECTION('',(2.19287513448322E-15,0.939692620785909,0.342020143325668));
#938=DIRECTION('',(0.,-0.342020143325668,0.939692620785909));
#939=DIRECTION('',(2.19287513448322E-15,0.939692620785909,0.342020143325668));
#940=DIRECTION('',(1.,-1.85037170770859E-15,-3.70074341541719E-15));
#941=DIRECTION('',(2.19287513448322E-15,0.939692620785909,0.342020143325668));
#942=DIRECTION('',(1.,-1.38777878078145E-15,-3.70074341541719E-15));
#943=DIRECTION('',(2.19287513448322E-15,0.939692620785909,0.342020143325668));
#944=DIRECTION('',(0.,-0.342020143325668,0.939692620785909));
#945=DIRECTION('',(2.19287513448322E-15,0.939692620785909,0.342020143325668));
#946=DIRECTION('',(1.,-1.85037170770859E-15,-3.70074341541719E-15));
#947=DIRECTION('',(0.,0.,-1.));
#948=DIRECTION('',(1.,0.,0.));
#949=DIRECTION('',(0.,0.,-1.));
#950=DIRECTION('',(1.,0.,0.));
#951=DIRECTION('',(0.,0.,-1.));
#952=DIRECTION('',(1.,0.,0.));
#953=DIRECTION('',(0.,0.,-1.));
#954=DIRECTION('',(1.,0.,0.));
#955=DIRECTION('',(0.,0.,1.));
#956=DIRECTION('',(1.,0.,0.));
#957=DIRECTION('',(0.,0.,-1.));
#958=DIRECTION('',(1.,0.,0.));
#959=DIRECTION('',(0.,0.,1.));
#960=DIRECTION('',(1.,0.,0.));
#961=DIRECTION('',(0.,0.,-1.));
#962=DIRECTION('',(1.,0.,0.));
#963=DIRECTION('',(0.,0.,1.));
#964=DIRECTION('',(1.,0.,0.));
#965=DIRECTION('',(0.,0.,1.));
#966=DIRECTION('',(1.,0.,0.));
#967=DIRECTION('',(0.,0.,-1.));
#968=DIRECTION('',(1.,0.,0.));
#969=DIRECTION('',(0.,0.,1.));
#970=DIRECTION('',(1.,0.,0.));
#971=DIRECTION('',(0.,0.,-1.));
#972=DIRECTION('',(1.,0.,0.));
#973=DIRECTION('',(0.,0.,1.));
#974=DIRECTION('',(1.,0.,0.));
#975=DIRECTION('',(0.,0.,1.));
#976=DIRECTION('',(1.,0.,0.));
#977=DIRECTION('',(0.,0.,-1.));
#978=DIRECTION('',(1.,0.,0.));
#979=DIRECTION('',(0.,0.,1.));
#980=DIRECTION('',(1.,0.,0.));
#981=DIRECTION('',(0.,0.,-1.));
#982=DIRECTION('',(1.,0.,0.));
#983=DIRECTION('',(0.,0.,1.));
#984=DIRECTION('',(1.,0.,0.));
#985=DIRECTION('',(0.,0.,1.));
#986=DIRECTION('',(1.,0.,0.));
#987=DIRECTION('',(0.,0.,-1.));
#988=DIRECTION('',(1.,0.,0.));
#989=DIRECTION('',(0.,0.,1.));
#990=DIRECTION('',(1.,0.,0.));
#991=DIRECTION('',(0.,0.,-1.));
#992=DIRECTION('',(1.,0.,0.));
#993=DIRECTION('',(0.,0.,1.));
#994=DIRECTION('',(1.,0.,0.));
#995=CARTESIAN_POINT('',(0.,0.,0.));
#996=CARTESIAN_POINT('',(5.93502884253131,13.4350288425313,-105.903309543983));
#997=CARTESIAN_POINT('',(7.68502884253131,13.4350288425313,-105.903309543983));
#998=CARTESIAN_POINT('',(-20.9350288425313,-13.4350288425313,-105.903309543983));
#999=CARTESIAN_POINT('',(-19.1850288425313,-13.4350288425313,-105.903309543983));
#1000=CARTESIAN_POINT('',(-49.6416509850178,25.5737315735424,-105.903309543982));
#1001=CARTESIAN_POINT('',(-49.6416509850178,-34.0931016292978,-105.903309543982));
#1002=CARTESIAN_POINT('',(-49.6416509850178,32.5737315735424,-105.903309543982));
#1003=CARTESIAN_POINT('',(-24.5403109329433,-34.0931016292978,-105.903309543982));
#1004=CARTESIAN_POINT('',(33.4596890670567,-34.0931016292978,-105.903309543983));
#1005=CARTESIAN_POINT('',(33.4596890670567,29.2102946541538,-105.903309543983));
#1006=CARTESIAN_POINT('',(33.4596890670567,32.5737315735424,-105.903309543983));
#1007=CARTESIAN_POINT('',(-4.41275433351262,32.5737315735424,-105.903309543983));
#1008=CARTESIAN_POINT('',(-20.9350288425313,13.4350288425313,-105.903309543983));
#1009=CARTESIAN_POINT('',(-19.1850288425313,13.4350288425313,-105.903309543983));
#1010=CARTESIAN_POINT('',(5.93502884253135,-13.4350288425313,-105.903309543983));
#1011=CARTESIAN_POINT('',(7.68502884253135,-13.4350288425313,-105.903309543983));
#1012=CARTESIAN_POINT('',(-24.5403109329433,29.2102946541538,-105.903309543982));
#1013=CARTESIAN_POINT('',(-12.5725292486649,36.5686897975387,-31.6983659754722));
#1014=CARTESIAN_POINT('',(-28.6047475643867,36.5686897975387,-31.6983659754722));
#1015=CARTESIAN_POINT('',(33.4596890670569,36.5686897975387,-31.6983659754722));
#1016=CARTESIAN_POINT('',(-28.6047475643867,23.900983424741,-33.932024392689));
#1017=CARTESIAN_POINT('',(-28.6047475643867,29.6370633515138,-32.9205987380987));
#1018=CARTESIAN_POINT('',(-12.5725292486649,29.6370633515138,-32.9205987380987));
#1019=CARTESIAN_POINT('',(33.4596890670569,29.6370633515138,-32.9205987380987));
#1020=CARTESIAN_POINT('',(33.4596890670569,23.900983424741,-33.932024392689));
#1021=CARTESIAN_POINT('',(-12.5725292486649,23.900983424741,-33.932024392689));
#1022=CARTESIAN_POINT('',(-32.7022221012716,29.7807632420243,-34.9756029134154));
#1023=CARTESIAN_POINT('',(-58.6047475643867,30.6891740300569,-47.9664824170663));
#1024=CARTESIAN_POINT('',(-58.6047475643867,32.5737315735424,-74.9169108880238));
#1025=CARTESIAN_POINT('',(-58.6047475643867,32.5737315735424,-74.9169108880238));
#1026=CARTESIAN_POINT('',(-12.5725292486649,32.5737315735424,-74.9169108880241));
#1027=CARTESIAN_POINT('',(33.4596890670569,32.5737315735424,-74.9169108880244));
#1028=CARTESIAN_POINT('',(33.4596890670569,32.5737315735424,-74.9169108880238));
#1029=CARTESIAN_POINT('',(-12.5725292486649,32.5737315735424,-74.9169108880238));
#1030=CARTESIAN_POINT('',(-58.6047475643867,26.5057060897449,-48.7041406878721));
#1031=CARTESIAN_POINT('',(-58.6047475643867,37.6208004760817,-46.7442496544397));
#1032=CARTESIAN_POINT('',(-58.6047475643867,39.5566799253612,-74.4286155718149));
#1033=CARTESIAN_POINT('',(-58.6047475643867,39.5908248601106,-74.9169108880238));
#1034=CARTESIAN_POINT('',(-58.6047475643867,31.0205587090851,-74.9169108880238));
#1035=CARTESIAN_POINT('',(-58.6047475643867,39.5737315735424,-74.9169108880238));
#1036=CARTESIAN_POINT('',(-58.6047475643867,25.5737315735424,-74.9169108880238));
#1037=CARTESIAN_POINT('',(-58.6047475643867,31.0205587090851,-74.3091422661895));
#1038=CARTESIAN_POINT('',(-32.9974826590596,36.7227445809092,-33.9014520177044));
#1039=CARTESIAN_POINT('',(33.4596890670569,39.5566799253612,-74.4286155718149));
#1040=CARTESIAN_POINT('',(33.4596890670569,39.5908248601107,-74.9169108880244));
#1041=CARTESIAN_POINT('',(-12.5725292486649,39.5908248601106,-74.9169108880241));
#1042=CARTESIAN_POINT('',(-12.5725292486649,39.5566799253612,-74.4286155718149));
#1043=CARTESIAN_POINT('',(-61.9127543335121,39.5737315735424,-74.9169108880238));
#1044=CARTESIAN_POINT('',(33.4596890670569,39.5737315735424,-74.9169108880244));
#1045=CARTESIAN_POINT('',(33.4596890670569,31.0205587090851,-74.9169108880244));
#1046=CARTESIAN_POINT('',(-61.9127543335121,25.5737315735424,-74.9169108880238));
#1047=CARTESIAN_POINT('',(33.4596890670569,32.5737315735424,-65.9169108880243));
#1048=CARTESIAN_POINT('',(33.4596890670568,-29.5035343966002,-92.6187611164096));
#1049=CARTESIAN_POINT('',(33.4596890670566,-43.8324973295278,-134.09408816756));
#1050=CARTESIAN_POINT('',(33.4596890670565,-42.0986987616073,-138.857660582804));
#1051=CARTESIAN_POINT('',(33.4596890670562,-26.9102509284576,-180.587578040948));
#1052=CARTESIAN_POINT('',(33.4596890670564,44.3987424873034,-154.633227002126));
#1053=CARTESIAN_POINT('',(33.4596890670564,20.8872142278177,-163.190723450688));
#1054=CARTESIAN_POINT('',(33.4596890670566,7.85624676710975,-127.388434598745));
#1055=CARTESIAN_POINT('',(33.4596890670565,16.5435584075817,-151.256627166706));
#1056=CARTESIAN_POINT('',(33.4596890670564,22.2451433842002,-149.181419947078));
#1057=CARTESIAN_POINT('',(33.4596890670564,-19.9165152789117,-164.527008727742));
#1058=CARTESIAN_POINT('',(33.4596890670566,-30.7613072918253,-134.73118755358));
#1059=CARTESIAN_POINT('',(33.4596890670565,-28.6038269193834,-140.658816159781));
#1060=CARTESIAN_POINT('',(33.4596890670566,29.4080970248345,-119.544202611571));
#1061=CARTESIAN_POINT('',(33.4596890670566,39.5737315735424,-115.844214223413));
#1062=CARTESIAN_POINT('',(33.4596890670566,39.5737315735424,-112.903309543983));
#1063=CARTESIAN_POINT('',(33.4596890670569,31.0205587090851,-74.3091422661895));
#1064=CARTESIAN_POINT('',(-58.6047475643867,26.5057060897449,-48.7041406878721));
#1065=CARTESIAN_POINT('',(-16.7302186034233,-30.7964934220021,-155.291192542593));
#1066=CARTESIAN_POINT('',(-16.7302186034233,-31.9080588878105,-152.237191525039));
#1067=CARTESIAN_POINT('',(-16.7302186034233,-24.1575650561498,-152.874820229997));
#1068=CARTESIAN_POINT('',(-16.7302186034233,-25.2691305219582,-149.820819212443));
#1069=CARTESIAN_POINT('',(-16.7302186034233,-15.7003314690766,-149.796638940066));
#1070=CARTESIAN_POINT('',(18.1951572856761,-30.7964934220021,-155.291192542593));
#1071=CARTESIAN_POINT('',(18.1951572856761,-31.9080588878105,-152.237191525039));
#1072=CARTESIAN_POINT('',(18.1951572856761,-24.1575650561499,-152.874820229997));
#1073=CARTESIAN_POINT('',(18.1951572856761,-25.2691305219583,-149.820819212443));
#1074=CARTESIAN_POINT('',(18.1951572856761,-15.7003314690766,-149.796638940066));
#1075=CARTESIAN_POINT('',(-58.1246048783853,-64.7670722390181,-76.5768163178536));
#1076=CARTESIAN_POINT('',(-28.0385496072106,-26.9102509284576,-180.587578040947));
#1077=CARTESIAN_POINT('',(-41.487212831162,-43.8324973295277,-134.09408816756));
#1078=CARTESIAN_POINT('',(-70.1454807222672,-9.60399429738577,-35.0193425370088));
#1079=CARTESIAN_POINT('',(-56.8228816069912,32.5737315735424,-81.0770150906749));
#1080=CARTESIAN_POINT('',(-62.7374083564595,39.5737315735424,-60.6298535436041));
#1081=CARTESIAN_POINT('',(-46.7661542318351,39.5737315735424,-115.844214223413));
#1082=CARTESIAN_POINT('',(-48.004965633562,51.3403685158693,-111.561508618988));
#1083=CARTESIAN_POINT('',(-39.5883057763324,-28.6038269193834,-140.658816159781));
#1084=CARTESIAN_POINT('',(-34.7502353476593,-22.5161571981335,-157.384551256012));
#1085=CARTESIAN_POINT('',(-32.684214806068,-19.9165152789117,-164.527008727742));
#1086=CARTESIAN_POINT('',(-41.1677943308146,60.6633051036695,-135.198352625965));
#1087=CARTESIAN_POINT('',(-36.5227929156855,16.5435584075816,-151.256627166706));
#1088=CARTESIAN_POINT('',(-38.3247192232575,14.276222207282,-145.027172154071));
#1089=CARTESIAN_POINT('',(-33.0707474305532,20.8872142278177,-163.190723450687));
#1090=CARTESIAN_POINT('',(-32.9900692324595,20.1209062451769,-163.469636746649));
#1091=CARTESIAN_POINT('',(-66.9014698638839,25.5737315735424,-46.2342405147342));
#1092=CARTESIAN_POINT('',(-4.41275433351264,39.5737315735424,-115.844214223413));
#1093=CARTESIAN_POINT('',(-4.41275433351232,39.5737315735424,-65.9169108880241));
#1094=CARTESIAN_POINT('',(-4.41275433351232,32.5737315735424,-65.9169108880241));
#1095=CARTESIAN_POINT('',(-20.9350288425313,13.4350288425313,-165.903097111165));
#1096=CARTESIAN_POINT('',(-20.9350288425312,9.4350288425313,-167.35897804823));
#1097=CARTESIAN_POINT('',(5.93502884253131,13.4350288425313,-165.903097111165));
#1098=CARTESIAN_POINT('',(5.93502884253138,9.4350288425313,-167.35897804823));
#1099=CARTESIAN_POINT('',(5.93502884253135,-13.4350288425313,-175.682998301544));
#1100=CARTESIAN_POINT('',(5.93502884253142,-17.4350288425313,-177.138879238609));
#1101=CARTESIAN_POINT('',(-20.9350288425313,-13.4350288425313,-175.682998301544));
#1102=CARTESIAN_POINT('',(-20.9350288425312,-17.4350288425313,-177.138879238608));
#1103=CARTESIAN_POINT('',(30.7324693411264,20.8872142278177,-163.190723450688));
#1104=CARTESIAN_POINT('',(0.876359341126292,-26.9102509284576,-180.587578040947));
#1105=CARTESIAN_POINT('',(0.876359341126348,23.26933502151,-162.323702387357));
#1106=CARTESIAN_POINT('',(-20.9350288425313,13.4350288425313,-142.716012379023));
#1107=CARTESIAN_POINT('',(-18.4176802486318,16.5435584075817,-151.256627166706));
#1108=CARTESIAN_POINT('',(-23.4523774364308,16.5435584075817,-151.256627166706));
#1109=CARTESIAN_POINT('',(0.876359341126476,16.5435584075817,-151.256627166706));
#1110=CARTESIAN_POINT('',(3.41768024863181,16.5435584075817,-151.256627166706));
#1111=CARTESIAN_POINT('',(5.93502884253131,13.4350288425313,-142.716012379023));
#1112=CARTESIAN_POINT('',(8.45237743643081,16.5435584075817,-151.256627166706));
#1113=CARTESIAN_POINT('',(0.876359341126476,16.5435584075817,-151.256627166706));
#1114=CARTESIAN_POINT('',(0.876359341126476,16.5435584075817,-151.256627166706));
#1115=CARTESIAN_POINT('',(30.7324693411266,7.85624676710975,-127.388434598745));
#1116=CARTESIAN_POINT('',(0.87635934112639,-19.9165152789117,-164.527008727742));
#1117=CARTESIAN_POINT('',(30.7324693411265,-28.6038269193834,-140.658816159781));
#1118=CARTESIAN_POINT('',(30.7324693411265,-28.6038269193836,-140.658816159781));
#1119=CARTESIAN_POINT('',(-20.9350288425313,13.4350288425313,-125.357923979833));
#1120=CARTESIAN_POINT('',(-20.9350288425312,9.9350288425313,-126.631819799765));
#1121=CARTESIAN_POINT('',(5.93502884253131,13.4350288425313,-125.357923979834));
#1122=CARTESIAN_POINT('',(5.93502884253137,9.9350288425313,-126.631819799765));
#1123=CARTESIAN_POINT('',(5.93502884253135,-13.4350288425313,-135.137825170212));
#1124=CARTESIAN_POINT('',(5.93502884253141,-16.9350288425313,-136.411720990144));
#1125=CARTESIAN_POINT('',(-20.9350288425313,-13.4350288425313,-135.137825170212));
#1126=CARTESIAN_POINT('',(-20.9350288425312,-16.9350288425313,-136.411720990144));
#1127=CARTESIAN_POINT('',(-28.9797506588734,29.4080970248345,-119.54420261157));
#1128=CARTESIAN_POINT('',(18.1951572856762,-35.4949565259318,-157.001293259221));
#1129=CARTESIAN_POINT('',(25.6951572856762,-35.4949565259318,-157.001293259221));
#1130=CARTESIAN_POINT('',(-16.7302186034233,-35.4949565259318,-157.001293259221));
#1131=CARTESIAN_POINT('',(-9.23021860342328,-35.4949565259318,-157.001293259221));
#1132=CARTESIAN_POINT('',(-14.2048906588734,-43.8324973295278,-134.09408816756));
#1133=CARTESIAN_POINT('',(-14.2048906588736,-33.2464887420975,-163.178907723677));
#1134=CARTESIAN_POINT('',(5.93502884253135,-13.4350288425313,-162.1679405911));
#1135=CARTESIAN_POINT('',(5.93502884253142,-17.4350288425313,-163.623821528164));
#1136=CARTESIAN_POINT('',(-20.9350288425313,-13.4350288425313,-162.167940591099));
#1137=CARTESIAN_POINT('',(-20.9350288425312,-17.4350288425313,-163.623821528164));
#1138=CARTESIAN_POINT('',(5.93502884253131,13.4350288425313,-152.388039400721));
#1139=CARTESIAN_POINT('',(-20.9350288425313,13.4350288425313,-152.388039400721));
#1140=CARTESIAN_POINT('',(0.876359341126428,22.2451433842002,-149.181419947078));
#1141=CARTESIAN_POINT('',(-24.5403109329433,-34.0931016292978,-105.903309543982));
#1142=CARTESIAN_POINT('',(-16.7302186034233,-30.7964934220023,-155.291192542593));
#1143=CARTESIAN_POINT('',(-9.23021860342327,-30.7964934220023,-155.291192542593));
#1144=CARTESIAN_POINT('',(-9.73021860342327,-30.7964934220023,-155.291192542593));
#1145=CARTESIAN_POINT('',(-16.7302186034233,-35.4949565259318,-157.001293259221));
#1146=CARTESIAN_POINT('',(18.1951572856762,-30.7964934220023,-155.291192542593));
#1147=CARTESIAN_POINT('',(25.6951572856762,-30.7964934220023,-155.291192542593));
#1148=CARTESIAN_POINT('',(11.1951572856762,-30.7964934220023,-155.291192542593));
#1149=CARTESIAN_POINT('',(18.1951572856762,-35.4949565259318,-157.001293259221));
#1150=CARTESIAN_POINT('',(-20.9350288425313,-13.4350288425313,-111.000000000166));
#1151=CARTESIAN_POINT('',(5.93502884253135,-13.4350288425313,-111.00000000008));
#1152=CARTESIAN_POINT('',(5.93502884253131,13.4350288425313,-111.00000000008));
#1153=CARTESIAN_POINT('',(-20.9350288425313,13.4350288425313,-111.000000000166));
#1154=CARTESIAN_POINT('',(-20.9350288425313,-13.4350288425313,-111.000000000166));
#1155=CARTESIAN_POINT('',(-17.4350288425313,-13.4350288425313,-111.000000000166));
#1156=CARTESIAN_POINT('',(-20.9350288425313,-13.4350288425313,-111.000000000166));
#1157=CARTESIAN_POINT('',(-20.9350288425313,-13.4350288425313,-111.000000000166));
#1158=CARTESIAN_POINT('',(-19.1850288425313,-13.4350288425313,-111.000000000166));
#1159=CARTESIAN_POINT('',(-20.9350288425313,-13.4350288425313,-106.000000000166));
#1160=CARTESIAN_POINT('',(-20.9350288425313,-13.4350288425313,-111.000000000166));
#1161=CARTESIAN_POINT('',(5.93502884253135,-13.4350288425313,-111.00000000008));
#1162=CARTESIAN_POINT('',(9.43502884253135,-13.4350288425313,-111.00000000008));
#1163=CARTESIAN_POINT('',(5.93502884253135,-13.4350288425313,-111.00000000008));
#1164=CARTESIAN_POINT('',(5.93502884253135,-13.4350288425313,-111.00000000008));
#1165=CARTESIAN_POINT('',(7.68502884253135,-13.4350288425313,-111.00000000008));
#1166=CARTESIAN_POINT('',(5.93502884253135,-13.4350288425313,-106.00000000008));
#1167=CARTESIAN_POINT('',(5.93502884253135,-13.4350288425313,-111.00000000008));
#1168=CARTESIAN_POINT('',(5.93502884253131,13.4350288425313,-111.00000000008));
#1169=CARTESIAN_POINT('',(9.43502884253131,13.4350288425313,-111.00000000008));
#1170=CARTESIAN_POINT('',(5.93502884253131,13.4350288425313,-111.00000000008));
#1171=CARTESIAN_POINT('',(5.93502884253131,13.4350288425313,-111.00000000008));
#1172=CARTESIAN_POINT('',(7.68502884253131,13.4350288425313,-111.00000000008));
#1173=CARTESIAN_POINT('',(5.93502884253131,13.4350288425313,-106.00000000008));
#1174=CARTESIAN_POINT('',(5.93502884253131,13.4350288425313,-111.00000000008));
#1175=CARTESIAN_POINT('',(-20.9350288425313,13.4350288425313,-111.000000000166));
#1176=CARTESIAN_POINT('',(-17.4350288425313,13.4350288425313,-111.000000000166));
#1177=CARTESIAN_POINT('',(-20.9350288425313,13.4350288425313,-111.000000000166));
#1178=CARTESIAN_POINT('',(-20.9350288425313,13.4350288425313,-111.000000000166));
#1179=CARTESIAN_POINT('',(-19.1850288425313,13.4350288425313,-111.000000000166));
#1180=CARTESIAN_POINT('',(-20.9350288425313,13.4350288425313,-106.000000000166));
#1181=CARTESIAN_POINT('',(-20.9350288425313,13.4350288425313,-111.000000000166));
#1182=MECHANICAL_DESIGN_GEOMETRIC_PRESENTATION_REPRESENTATION('',(#32),
#1183);
#1183=(
GEOMETRIC_REPRESENTATION_CONTEXT(3)
GLOBAL_UNCERTAINTY_ASSIGNED_CONTEXT((#1184))
GLOBAL_UNIT_ASSIGNED_CONTEXT((#1190,#1186,#1185))
REPRESENTATION_CONTEXT('Gen1_Open_R_with_mount',
'TOP_LEVEL_ASSEMBLY_PART')
);
#1184=UNCERTAINTY_MEASURE_WITH_UNIT(LENGTH_MEASURE(2.E-5),#1190,
'DISTANCE_ACCURACY_VALUE','Maximum Tolerance applied to model');
#1185=(
NAMED_UNIT(*)
SI_UNIT($,.STERADIAN.)
SOLID_ANGLE_UNIT()
);
#1186=(
CONVERSION_BASED_UNIT('DEGREE',#1188)
NAMED_UNIT(#1187)
PLANE_ANGLE_UNIT()
);
#1187=DIMENSIONAL_EXPONENTS(0.,0.,0.,0.,0.,0.,0.);
#1188=PLANE_ANGLE_MEASURE_WITH_UNIT(PLANE_ANGLE_MEASURE(0.0174532925),#1189);
#1189=(
NAMED_UNIT(*)
PLANE_ANGLE_UNIT()
SI_UNIT($,.RADIAN.)
);
#1190=(
LENGTH_UNIT()
NAMED_UNIT(*)
SI_UNIT(.MILLI.,.METRE.)
);
ENDSEC;
END-ISO-10303-21;
